<?xml version="1.0" encoding="utf-8"?>
<!-- Generator: Adobe Illustrator 23.0.2, SVG Export Plug-In . SVG Version: 6.00 Build 0)  -->
<svg version="1.1" id="Слой_1" xmlns="http://www.w3.org/2000/svg" xmlns:xlink="http://www.w3.org/1999/xlink" x="0px" y="0px"
	 viewBox="0 0 512 512" style="enable-background:new 0 0 512 512;" xml:space="preserve">
<style type="text/css">
	.st0{fill:#F15D60;}
	.st1{fill:#F79850;}
	.st2{fill:#F6EF4D;}
	.st3{fill:#B8D761;}
	.st4{fill:#7CC791;}
	.st5{fill:#44BE9E;}
	.st6{fill:none;stroke:#020202;stroke-width:5;stroke-linecap:round;stroke-miterlimit:10;}
</style>
<g id="Слой_3">
	<path class="st0" d="M120.1,435.8l42.1-51.9c0,0,29,24.6,71.1,30.6l-10,66.4C223.3,480.8,172,475.2,120.1,435.8z"/>
	<path class="st1" d="M235.3,482.9l11-65.9c0,0,37.4,7.1,77-8.5l24.1,62.7C347.3,471.2,299.9,491.6,235.3,482.9z"/>
	<path class="st2" d="M363,465.2L338.5,403c0,0,35.7-13.1,61.6-46.9l52.9,41.4C453.1,397.5,422.9,439.4,363,465.2z"/>
	<path class="st3" d="M457.6,391.8l-51.8-42.2c0,0,24.7-28.9,30.8-71l66.3,10.2C503,288.7,497.1,340,457.6,391.8z"/>
	<path class="st4" d="M505,278.2l-66.1-9.8c0,0,6.5-37.5-9.8-76.8l62.2-25.1C491.3,166.4,512.5,213.5,505,278.2z"/>
	<path class="st5" d="M487.9,156.7l-62.1,24.6c0,0-13.2-35.7-47-61.5l41.2-53C420.1,66.8,462,96.9,487.9,156.7z"/>
</g>
<g>
	<g>
		<path class="st6" d="M183.4,24.9c26-9.4,54-14.5,83.3-14.5c133.7,0,242.2,106.8,242.2,238.5S400.5,487.4,266.7,487.4
			c-83.7,0-157.4-41.8-200.9-105.3"/>
	</g>
</g>
<g>
	<path d="M363.6,86.7c-1-3.1-3.9-5.2-7.1-5.2h-58.6c-22.5-19.4-51.1-31.2-80.8-33.1c-49.8-3.3-98.8,3.7-145.7,20.7L29.9,84.2
		c-3.9,1.4-5.9,5.7-4.5,9.5c1.1,3,4,4.9,7,4.9c0.8,0,1.7-0.1,2.5-0.5l41.5-15.1c44.9-16.3,91.9-23,139.6-19.9
		c20.2,1.3,39.8,7.7,56.8,18.3c-3.7,0.5-6.5,3.6-6.5,7.4c0,4.1,3.3,7.4,7.4,7.4H333l-11.8,8.3c-11.4,8-26.1,10-39.2,5.2
		c-3.9-1.4-8.1,0.6-9.5,4.5c-1.4,3.9,0.6,8.1,4.5,9.5c6.4,2.3,13.1,3.5,19.7,3.5c3.6,0,7.2-0.3,10.8-1l-9.2,185.1c0,0.2,0,0.4,0,0.6
		c-12-1.8-24.1,3.5-31,13.7c-2.3,3.4-1.4,8,2.1,10.3c1.3,0.8,2.7,1.3,4.1,1.3c2.4,0,4.8-1.2,6.2-3.3c3.2-4.8,8.6-7.5,14.2-7.4
		c-4.1,7.1-10.6,12.5-18.4,15.2l-6.6,2.3c-1,0.4-2.1,0.6-3.1,0.8l-8-32c-1-4-5-6.4-9-5.4c-4,1-6.4,5-5.4,9l5.8,23.4l-6-3.4
		c-4.5-2.6-6.8-7.7-5.6-12.7c1.9-8.4,1.4-17.1-1.5-25.3l-16.5-46.4c1.9,0.3,3.9,0.6,5.9,0.7l33.6,2.3c0.2,0,0.3,0,0.5,0
		c3.9,0,7.2-3,7.4-6.9c0.3-4.1-2.8-7.7-6.9-7.9l-33.6-2.3c-21.6-1.5-32-17.5-34.4-30.9c-2.4-13.3,1.9-32,21.6-40.9l30-13.4
		c3.8-1.7,5.4-6.1,3.8-9.8c-1.7-3.8-6.1-5.4-9.8-3.8l-30,13.4c-9.7,4.3-17.5,10.9-22.8,19.3c-13.3,3.7-66.8,19.9-103.3,52.3
		c-3.1,2.7-3.4,7.4-0.6,10.5c1.5,1.7,3.5,2.5,5.6,2.5c1.8,0,3.5-0.6,4.9-1.9c27.2-24.2,65.9-39.1,86.3-45.7
		c-1.3,6.5-1.4,13.4-0.2,20.1c0.8,4.6,2.2,9,4.1,13.1c-2.8,8.2-11.6,33-24.7,59.4c-20.6,41.3-42.5,67.6-63.1,75.9
		c-3.8,1.5-5.7,5.9-4.1,9.7c1.2,2.9,4,4.7,6.9,4.7c0.9,0,1.9-0.2,2.8-0.5c46.6-18.8,80.8-101.1,92.8-133.9c0.2,0.2,0.5,0.5,0.7,0.7
		c2.7,2.6,5.6,4.8,8.7,6.7l20.6,58.1c1.9,5.5,2.3,11.3,1,17c-2.6,11.5,2.5,23.2,12.8,29l11.3,6.4c5,2.8,10.5,4.2,16.1,4.2
		c3.6,0,7.2-0.6,10.6-1.8l6.6-2.3c11.5-4,21-12,26.9-22.6c3.6-6.5,5.6-13.8,6-21.1l9.4-191c2.5-1.3,4.9-2.7,7.2-4.3l31.1-21.8
		C363.5,93.2,364.6,89.8,363.6,86.7z"/>
	<path d="M282.8,197.9c1.5,1.6,3.5,2.5,5.5,2.5c1.8,0,3.6-0.6,5-1.9c3.1-2.8,3.3-7.5,0.6-10.5l-10.1-11.2c-2.8-3.1-7.5-3.3-10.5-0.6
		c-3.1,2.8-3.3,7.5-0.6,10.5L282.8,197.9z"/>
</g>
</svg>
