<?xml version="1.0" encoding="utf-8"?>
<!-- Generator: Adobe Illustrator 23.0.2, SVG Export Plug-In . SVG Version: 6.00 Build 0)  -->
<svg version="1.1" id="Слой_1" xmlns="http://www.w3.org/2000/svg" xmlns:xlink="http://www.w3.org/1999/xlink" x="0px" y="0px"
	 viewBox="0 0 512 512" style="enable-background:new 0 0 512 512;" xml:space="preserve">
<style type="text/css">
	.st0{fill:#F15D60;}
	.st1{fill:#F79850;}
	.st2{fill:#F6EF4D;}
	.st3{fill:#B8D761;}
	.st4{fill:#7CC791;}
	.st5{fill:#44BE9E;}
	.st6{fill:none;stroke:#020202;stroke-width:5;stroke-linecap:round;stroke-miterlimit:10;}
</style>
<g id="Слой_3">
	<path class="st0" d="M120.1,435.8l42.1-51.9c0,0,29,24.6,71.1,30.6l-10,66.4C223.3,480.8,172,475.2,120.1,435.8z"/>
	<path class="st1" d="M235.3,482.9l11-65.9c0,0,37.4,7.1,77-8.5l24.1,62.7C347.3,471.2,299.9,491.6,235.3,482.9z"/>
	<path class="st2" d="M363,465.2L338.5,403c0,0,35.7-13.1,61.6-46.9l52.9,41.4C453.1,397.5,422.9,439.4,363,465.2z"/>
	<path class="st3" d="M457.6,391.8l-51.8-42.2c0,0,24.7-28.9,30.8-71l66.3,10.2C503,288.7,497.1,340,457.6,391.8z"/>
	<path class="st4" d="M505,278.2l-66.1-9.8c0,0,6.5-37.5-9.8-76.8l62.2-25.1C491.3,166.4,512.5,213.5,505,278.2z"/>
	<path class="st5" d="M487.9,156.7l-62.1,24.6c0,0-13.2-35.7-47-61.5l41.2-53C420.1,66.8,462,96.9,487.9,156.7z"/>
</g>
<g>
	<g>
		<path class="st6" d="M183.4,24.9c26-9.4,54-14.5,83.3-14.5c133.7,0,242.2,106.8,242.2,238.5S400.5,487.4,266.7,487.4
			c-83.7,0-157.4-41.8-200.9-105.3"/>
	</g>
</g>
<g id="Car-5">
	<path d="M340.1,163.1h-59.9l-72.8-102c-4.5-6.3-11.8-10-19.6-10H-27.9c-22.1,0-40,17.9-40,40v16h-32c-8.8,0-16,7.2-16,16v80
		c0,8.8,7.2,16,16,16h32v64c0,13.3,10.7,24,24,24h24.6c4.4,30.6,32.7,51.8,63.3,47.4c24.6-3.5,43.9-22.8,47.4-47.4h113.3
		c4.4,30.6,32.7,51.8,63.3,47.4c24.6-3.5,43.9-22.8,47.4-47.4h24.6c13.3,0,24-10.7,24-24v-96C364.1,173.9,353.4,163.1,340.1,163.1z
		 M156.1,99.1h58.7l45.7,64H156.1V99.1z M140.1,163.1h-160v-64h160V163.1z M-99.9,203.1v-24h8v-16h-8v-16h8v-16h-8v-8h32v24h-8v16h8
		v16h-8v16h8v8H-99.9z M-51.9,283.1v-8h24v-16h-24v-168c0-13.3,10.7-24,24-24h215.8c2.6,0,5,1.2,6.5,3.3l9,12.7H-27.9
		c-4.4,0-8,3.6-8,8v80c0,4.4,3.6,8,8,8h168v112H91.5c-4.4-30.6-32.7-51.8-63.3-47.4c-24.6,3.5-43.9,22.8-47.4,47.4h-24.6
		C-48.3,291.1-51.9,287.5-51.9,283.1z M36.1,339.1c-22.1,0-40-17.9-40-40s17.9-40,40-40s40,17.9,40,40
		C76.1,321.2,58.2,339.1,36.1,339.1z M260.1,339.1c-22.1,0-40-17.9-40-40s17.9-40,40-40s40,17.9,40,40
		C300.1,321.2,282.2,339.1,260.1,339.1z M340.1,291.1h-24.6c-4.4-30.6-32.7-51.8-63.3-47.4c-24.6,3.5-43.9,22.8-47.4,47.4h-48.6
		v-112h184c4.4,0,8,3.6,8,8v8h-32c-8.8,0-16,7.2-16,16v16c0,8.8,7.2,16,16,16h32v16h-24v16h24v8
		C348.1,287.5,344.5,291.1,340.1,291.1z M348.1,211.1v16h-32v-16H348.1z"/>
	<path d="M172.1,195.1h32v16h-32V195.1z"/>
	<path d="M28.1,291.1h16v16h-16V291.1z"/>
	<path d="M252.1,291.1h16v16h-16V291.1z"/>
</g>
</svg>
