<?xml version="1.0" encoding="utf-8"?>
<!-- Generator: Adobe Illustrator 22.0.1, SVG Export Plug-In . SVG Version: 6.00 Build 0)  -->
<svg version="1.1" xmlns="http://www.w3.org/2000/svg" xmlns:xlink="http://www.w3.org/1999/xlink" x="0px" y="0px"
	 viewBox="0 0 512 512" style="enable-background:new 0 0 512 512;" xml:space="preserve">
<style type="text/css">
	.st0{fill:#F15D60;}
	.st1{fill:#F79850;}
	.st2{fill:#F6EF4D;}
	.st3{fill:#B8D761;}
	.st4{fill:#7CC791;}
	.st5{fill:#44BE9E;}
	.st6{fill:none;stroke:#020202;stroke-width:5;stroke-linecap:round;stroke-miterlimit:10;}
</style>
<g id="Capa_1">
	<path d="M254.7,211l4.3-11.8l12.6,4.6l-4.3,11.8L254.7,211z"/>
	<path d="M190.4,187.7l51.6,18.8l4.3-11.8l-47.8-17.4l-7-91.1l-12.5,1l7.3,95.1C186.4,184.7,188,186.8,190.4,187.7z"/>
	<path d="M17.7,305.2l-12,23.9C5.4,330,5.1,331,5.1,332v18.9c0,3.5,2.8,6.3,6.3,6.3h25.2c1.7,0,3.3-0.7,4.4-1.8l10.7-10.7h20
		l10.7,10.7c1.2,1.2,2.8,1.8,4.4,1.8h25.2c1.7,0,3.3-0.7,4.4-1.8l10.7-10.7h38.8l10.7,10.7c1.2,1.2,2.8,1.8,4.4,1.8h31.5
		c1.7,0,3.3-0.7,4.4-1.8l10.7-10.7h26.2l10.7,10.7c1.2,1.2,2.8,1.8,4.4,1.8h31.5c1.7,0,3.3-0.7,4.4-1.8l25.2-25.2
		c1.2-1.2,1.8-2.8,1.8-4.4V292c0-23.6-14.8-44.7-37-52.8l-120.6-43.9L162.4,35.8c-0.3-3.3-3-5.8-6.3-5.8C67.4,30,10.7,60.9,8.4,62.2
		c-2.5,1.4-3.8,4.4-3,7.2c0.2,0.7,18.7,69,18.7,124.2c0,42.1-3.6,81.4-5.3,100.3C18.2,299.7,17.9,303.1,17.7,305.2L17.7,305.2z
		 M159,156.5l-23.3,5.8l3,12.2l21.3-5.3l2.3,30.1l-23.5,14.5l-9.2-11.5c-1.6-1.9-4.1-2.8-6.5-2.2l-87,22.9
		c0.3-9.5,0.5-19.3,0.5-29.4c0-8.7-0.4-17.8-1.2-26.7l122-32.5L159,156.5z M178.3,243l33.7-20.7l25.4,9.2l-21.6,13.3l6.6,10.7
		l30.1-18.5l8.1,3c-6.5,7.2-10,16.5-10.1,26.2c0.3,3.8-2.6,7.1-6.4,7.4c-31.6,1.2-61.2,1.8-88,1.8c-7.5,0-14.6-0.1-21.5-0.2
		l20.6-34.3c1.4-2.3,1.2-5.1-0.5-7.2l-8-10l25.6-15.8l24.5,8.9l-25.2,15.5L178.3,243z M30.7,301.3c0.2-1.9,0.4-4,0.6-6.3
		c1.1-12.4,3.1-33.7,4.3-58.9l86.8-22.8l5.7,7.1l-19.2,11.8l6.6,10.7l20.6-12.7l6.2,7.8l-40.7,67.8
		C64.5,304.7,40.8,302.4,30.7,301.3L30.7,301.3z M298.2,344.5h-26.2l-10.7-10.7c-1.2-1.2-2.8-1.8-4.4-1.8h-31.5
		c-1.7,0-3.3,0.7-4.4,1.8l-10.7,10.7h-26.2l-10.7-10.7c-1.2-1.2-2.8-1.8-4.4-1.8h-44c-1.7,0-3.3,0.7-4.4,1.8l-10.7,10.7h-20
		l-10.7-10.7c-1.2-1.2-2.8-1.8-4.4-1.8H49.1c-1.7,0-3.3,0.7-4.4,1.8L34,344.5H17.7v-11.1l9.9-19.8l0.4,0l1.4,0.2l1.9,0.2l1.8,0.2
		l2.5,0.3l2,0.2l3.7,0.3l1.8,0.2c1.8,0.2,3.8,0.3,6,0.5l2.4,0.2l4.7,0.4l3,0.2l5.1,0.3l3.3,0.2c1.9,0.1,3.9,0.2,5.9,0.3l3.3,0.2
		c2.8,0.1,5.8,0.3,8.8,0.4l1.2,0.1c3.5,0.2,7.1,0.3,10.8,0.4l3.6,0.1c2.7,0.1,5.4,0.2,8.2,0.3l4.6,0.1c2.7,0.1,5.5,0.1,8.3,0.2
		l5,0.1c3,0,6.1,0.1,9.3,0.1l4.6,0.1c4.8,0.1,9.7,0.1,14.7,0.1c8.1,0,16.1-0.1,24.1-0.2h1.8c8.6-0.1,17-0.3,25.3-0.5h0.8
		c27.7-0.7,53-1.8,73-2.8l4.3-0.2l2.2-0.1c14.4-0.8,25.5-1.5,32.1-2v9.5L298.2,344.5z M310.9,265.8c5.6,7.5,8.7,16.7,8.7,26.1v9
		c-6,0.4-16.2,1.1-29.7,1.8l-0.7,0l-2.3,0.1c-7.3,0.4-15.4,0.8-24.2,1.2c-19,0.9-37.4,1.5-55.3,2c-8.8,0.2-17.5,0.4-26,0.5h-0.4
		c-8.5,0.1-16.9,0.2-25,0.2c-14.6,0-28-0.2-40.2-0.5l11.2-18.7c9.1,0.2,18.7,0.3,29,0.3c26.9,0,56.7-0.6,88.5-1.8
		c10.6-0.6,18.8-9.6,18.5-20.2c0.1-8.3,4-16.1,10.7-21.2L291,251C298.9,253.9,305.9,259.1,310.9,265.8L310.9,265.8z M151.3,56.1
		l-21.9,5.5l3.1,12.2l19.8-5l1.5,19.7l-18.1,4.5l3,12.2l16-4l1.6,20.3L34.1,154.1c-1.3-11-2.8-21.8-4.5-31.8L113.7,99
		c2.9-0.8,4.9-3.6,4.6-6.6l-4-47.4c11.9-1.4,23.9-2.2,35.9-2.4L151.3,56.1z M101.9,46.7l3.5,41.5l-78,21.6
		c-3.4-17.5-6.8-31.7-8.6-38.8C45.2,59.1,73.2,50.9,101.9,46.7L101.9,46.7z"/>
	<path d="M42.9,275.3h12.6v12.6H42.9V275.3z"/>
	<path d="M68,281.6h12.6v12.6H68V281.6z"/>
</g>
<g id="Слой_3">
	<path class="st0" d="M120.1,435.8l42.1-51.9c0,0,29,24.6,71.1,30.6l-10,66.4C223.3,480.8,172,475.2,120.1,435.8z"/>
	<path class="st1" d="M235.3,482.9l11-65.9c0,0,37.4,7.1,77-8.5l24.1,62.7C347.3,471.2,299.9,491.6,235.3,482.9z"/>
	<path class="st2" d="M363,465.2L338.5,403c0,0,35.7-13.1,61.6-46.9l52.9,41.4C453.1,397.5,422.9,439.4,363,465.2z"/>
	<path class="st3" d="M457.6,391.8l-51.8-42.2c0,0,24.7-28.9,30.8-71l66.3,10.2C503,288.7,497.1,340,457.6,391.8z"/>
	<path class="st4" d="M505,278.2l-66.1-9.8c0,0,6.5-37.5-9.8-76.8l62.2-25.1C491.3,166.4,512.5,213.5,505,278.2z"/>
	<path class="st5" d="M487.9,156.7l-62.1,24.6c0,0-13.2-35.7-47-61.5l41.2-53C420.1,66.8,462,96.9,487.9,156.7z"/>
</g>
<g id="Слой_2">
	<g>
		<path class="st6" d="M183.4,24.9c26-9.4,54-14.5,83.3-14.5c133.7,0,242.2,106.8,242.2,238.5S400.5,487.4,266.7,487.4
			c-83.7,0-157.4-41.8-200.9-105.3"/>
	</g>
</g>
</svg>
