<?xml version="1.0" encoding="utf-8"?>
<!-- Generator: Adobe Illustrator 23.0.2, SVG Export Plug-In . SVG Version: 6.00 Build 0)  -->
<svg version="1.1" id="Слой_1" xmlns="http://www.w3.org/2000/svg" xmlns:xlink="http://www.w3.org/1999/xlink" x="0px" y="0px"
	 viewBox="0 0 512 512" style="enable-background:new 0 0 512 512;" xml:space="preserve">
<style type="text/css">
	.st0{fill:#F15D60;}
	.st1{fill:#F79850;}
	.st2{fill:#F6EF4D;}
	.st3{fill:#B8D761;}
	.st4{fill:#7CC791;}
	.st5{fill:#44BE9E;}
	.st6{fill:none;stroke:#020202;stroke-width:5;stroke-linecap:round;stroke-miterlimit:10;}
</style>
<g id="Слой_3">
	<path class="st0" d="M120.1,435.8l42.1-51.9c0,0,29,24.6,71.1,30.6l-10,66.4C223.3,480.8,172,475.2,120.1,435.8z"/>
	<path class="st1" d="M235.3,482.9l11-65.9c0,0,37.4,7.1,77-8.5l24.1,62.7C347.3,471.2,299.9,491.6,235.3,482.9z"/>
	<path class="st2" d="M363,465.2L338.5,403c0,0,35.7-13.1,61.6-46.9l52.9,41.4C453.1,397.5,422.9,439.4,363,465.2z"/>
	<path class="st3" d="M457.6,391.8l-51.8-42.2c0,0,24.7-28.9,30.8-71l66.3,10.2C503,288.7,497.1,340,457.6,391.8z"/>
	<path class="st4" d="M505,278.2l-66.1-9.8c0,0,6.5-37.5-9.8-76.8l62.2-25.1C491.3,166.4,512.5,213.5,505,278.2z"/>
	<path class="st5" d="M487.9,156.7l-62.1,24.6c0,0-13.2-35.7-47-61.5l41.2-53C420.1,66.8,462,96.9,487.9,156.7z"/>
</g>
<g>
	<g>
		<path class="st6" d="M183.4,24.9c26-9.4,54-14.5,83.3-14.5c133.7,0,242.2,106.8,242.2,238.5S400.5,487.4,266.7,487.4
			c-83.7,0-157.4-41.8-200.9-105.3"/>
	</g>
</g>
<path d="M397,259.8c-11.1-30.4-30.7-71.1-84.1-122.6l8-9c4.2-4.8,3.8-12.1-1-16.3l-17.3-15.4c-4.8-4.2-12.1-3.8-16.3,1l-8,9
	c-57.4-47-100.2-61.8-131.6-69.2c-5.4-1.5-11.1,1.3-13.2,6.4c-2.2,5.8,0.1,12.3,5.5,15.3c39.2,23.3,76.7,49.3,112.4,77.7L238,151.6
	c-18.9,0-34.3,15.2-34.5,34.1c-12.5,5.4-19.5,18.9-16.7,32.2L135,276.2l-2.6-1.3c-4.7-2.5-10.5-1.4-14,2.6l-25,28.1
	c-1,1.1-2.4,1.8-4,1.9l-5.8,0.3c-5.2,0.3-10.1,2.7-13.6,6.6l-0.1,0.1c-2.7-3.3-6.8-8.9-13.1-18.1c-2.2-3.2-4.1-6-5.9-8.5
	c-9.2-13-14.2-20.2-25.7-50c-5.9-15.2-14.1-23.9-24.6-25.8c-10.1-1.1-20.1,2.6-26.9,10.1c-14.9,16.7-10.8,36.9,11.5,56.7
	c17.5,15.2,37.1,27.7,58.3,37.1c5.9,2.9,11.6,5.8,17.3,8.8c-5.4,7.2-4.4,17.3,2.3,23.3l30.3,26.9c4.8,4.2,12.1,3.8,16.3-1l6.1-6.8
	c2.1-2.3,3.1-5.3,2.9-8.4l-0.3-5.7c-0.1-1.3,0.9-2.5,2.3-2.5c7.7-0.5,13.6-7.1,13.1-14.8c0-0.6,0.2-1.3,0.6-1.7
	c0.4-0.5,1-0.8,1.7-0.8c7.7-0.5,13.6-7.1,13.1-14.8c-0.1-1.3,0.9-2.5,2.3-2.5l5.7-0.3c3.1-0.2,6-1.6,8.1-3.9l2.2-2.5
	c2-2.3,3.1-5.3,2.9-8.4c-0.2-3.1-1.6-5.9-3.9-8l46.3-52c13.6,1.2,26.1-7.3,30-20.4c18.8-2.4,32.1-19.5,29.8-38.2l12.9-14.5
	c4.6,4.7,9.3,9.6,13.7,14.3c3.5,3.7,6.9,7.2,10,10.5c3.2,2.7,6.9,4.7,11,5.7l3.9,9.3c0.7,1.6,2,2.8,3.7,3.3l9.1,2.7l2.3,10.5
	c0.4,1.6,1.4,3.1,2.9,3.9l8.6,4.6l3.9,10.3c0.2,0.6,0.5,1.1,0.9,1.6c0,0,14.7,18.1,20.5,25.5c0.5,0.7,1.1,1.3,1.7,1.8
	c3.8,3.6,9.5,4.3,14.2,1.8C397,270.9,399.1,265,397,259.8z M48.6,305.7c-20.2-8.9-39-20.8-55.7-35.3c-26-23.1-14.4-36.1-10.6-40.4
	c4.2-4.4,10.1-6.7,16.2-6.3c2.5,0.5,4.7,1.7,6.6,3.4c4.2,4.3,7.4,9.4,9.3,15.1c12,31.1,17.7,39.2,27,52.5c1.8,2.5,3.7,5.2,5.8,8.3
	l2.1,3.1C49.2,306,48.9,305.9,48.6,305.7z M294.9,105l17.3,15.4l-7.8,8.8c-2.8-2.6-5.6-5.2-8.6-7.8c-3-2.6-5.9-5.1-8.8-7.6
	L294.9,105z M137.7,319.3c0,0.6-0.2,1.3-0.6,1.7c-0.4,0.5-1,0.8-1.7,0.8c-3.7,0.2-7.2,1.9-9.6,4.7c-2.5,2.8-3.7,6.4-3.5,10.1
	c0,0.6-0.2,1.3-0.6,1.7c-0.4,0.5-1,0.8-1.7,0.8c-7.7,0.5-13.6,7.1-13.1,14.8l0.3,5.8l-6.1,6.8l-30.3-26.9c-2.4-2.1-2.6-5.8-0.5-8.2
	l8.4-9.4c1.4-1.6,3.5-2.6,5.6-2.7l5.8-0.3c4.6-0.3,8.9-2.3,12-5.8l25-28.1l31.7,16.6l-2.3,2.5l-5.7,0.3c-3.7,0.2-7.2,1.9-9.6,4.7
	C138.8,312,137.5,315.6,137.7,319.3L137.7,319.3z M156.2,287.2l-10.6-5.5l46.3-52.1c2.3,3.1,5.3,5.7,8.7,7.7L156.2,287.2z
	 M238.1,209.3c-2.9,0-5.4,2.2-5.8,5.1c-1.1,8.7-8.5,15.3-17.3,15.2c-8.8,0-16.2-6.6-17.2-15.3c-1-8.7,4.6-16.8,13.1-18.9
	c2.8-0.7,4.7-3.4,4.4-6.3c-0.9-6.6,1.1-13.2,5.6-18.2c8.5-9.6,23.1-10.4,32.7-1.9c9.6,8.5,10.4,23.1,1.9,32.7
	C251.1,206.6,244.7,209.4,238.1,209.3z M268.6,169.5c-3.8-7-9.9-12.4-17.3-15.4l9-10.1c2.9,2.5,5.9,5,8.7,7.6c2.6,2.3,5.4,5,8.4,8
	L268.6,169.5z M385.4,262.8c-5.2-6.6-17.3-21.5-20.1-25l-4.4-11.4c-0.5-1.3-1.4-2.4-2.7-3l-8.1-4.4l-2.5-11.2c-0.5-2.1-2-3.7-4-4.3
	l-9.8-2.9l-3.9-9.4c-0.7-1.7-2.2-3-4.1-3.4c-2.9-0.6-5.6-1.7-8.1-3.2c-3.1-3.2-6.5-6.8-10-10.4c-10.4-10.9-22.1-23.2-31-31.1
	c-49.6-44.1-111.4-81.6-131.7-93.9c-0.2-0.1-0.4-0.3-0.6-0.5c33.2,7.9,79.6,24.4,143.9,81.5c64,56.9,85.9,100.9,97.7,133.3
	C385.7,263.2,385.5,263,385.4,262.8z"/>
<path d="M242.5,190.1c-2.1,2.4-5.8,2.6-8.2,0.5c-2.4-2.1-2.6-5.8-0.5-8.2c2.1-2.4,5.8-2.6,8.2-0.5
	C244.4,184.1,244.6,187.7,242.5,190.1z"/>
<path d="M219.4,216.1c-2.1,2.4-5.8,2.6-8.2,0.5c-2.4-2.1-2.6-5.8-0.5-8.2c2.1-2.4,5.8-2.6,8.2-0.5
	C221.3,210,221.6,213.7,219.4,216.1z"/>
</svg>
