<?xml version="1.0" encoding="utf-8"?>
<!-- Generator: Adobe Illustrator 23.0.2, SVG Export Plug-In . SVG Version: 6.00 Build 0)  -->
<svg version="1.1" id="Слой_1" xmlns="http://www.w3.org/2000/svg" xmlns:xlink="http://www.w3.org/1999/xlink" x="0px" y="0px"
	 viewBox="0 0 512 512" style="enable-background:new 0 0 512 512;" xml:space="preserve">
<style type="text/css">
	.st0{fill:#F15D60;}
	.st1{fill:#F79850;}
	.st2{fill:#F6EF4D;}
	.st3{fill:#B8D761;}
	.st4{fill:#7CC791;}
	.st5{fill:#44BE9E;}
	.st6{fill:none;stroke:#020202;stroke-width:5;stroke-linecap:round;stroke-miterlimit:10;}
</style>
<g id="Слой_3">
	<path class="st0" d="M120.1,435.8l42.1-51.9c0,0,29,24.6,71.1,30.6l-10,66.4C223.3,480.8,172,475.2,120.1,435.8z"/>
	<path class="st1" d="M235.3,482.9l11-65.9c0,0,37.4,7.1,77-8.5l24.1,62.7C347.3,471.2,299.9,491.6,235.3,482.9z"/>
	<path class="st2" d="M363,465.2L338.5,403c0,0,35.7-13.1,61.6-46.9l52.9,41.4C453.1,397.5,422.9,439.4,363,465.2z"/>
	<path class="st3" d="M457.6,391.8l-51.8-42.2c0,0,24.7-28.9,30.8-71l66.3,10.2C503,288.7,497.1,340,457.6,391.8z"/>
	<path class="st4" d="M505,278.2l-66.1-9.8c0,0,6.5-37.5-9.8-76.8l62.2-25.1C491.3,166.4,512.5,213.5,505,278.2z"/>
	<path class="st5" d="M487.9,156.7l-62.1,24.6c0,0-13.2-35.7-47-61.5l41.2-53C420.1,66.8,462,96.9,487.9,156.7z"/>
</g>
<g>
	<g>
		<path class="st6" d="M183.4,24.9c26-9.4,54-14.5,83.3-14.5c133.7,0,242.2,106.8,242.2,238.5S400.5,487.4,266.7,487.4
			c-83.7,0-157.4-41.8-200.9-105.3"/>
	</g>
</g>
<g>
	<g>
		<path d="M218.1,243.7c1.1,0.9,2.4,1.4,3.7,1.4c1.5,0,3-0.6,4.1-1.8c70.8-79.1,92.9-164.9,93.8-168.4c2.4-9.1,5.5-25.2-0.5-31.2
			c-6-6-22.1-2.8-31.1-0.3c-1,0.2-98.6,25.3-180.8,105.1L82.8,124l3.9-3.9c6.5-6.5,6.5-17,0-23.4L63.2,73.2
			C58,68,51.1,65.2,43.7,65.2c-7.4,0-14.3,2.9-19.5,8.1c-10.8,10.8-10.8,28.3,0,39l23.4,23.4c3.1,3.1,7.3,4.8,11.7,4.8h0
			c4.4,0,8.6-1.7,11.7-4.9l3.9-3.9l50.7,50.7c0,0,0,0,0,0c0,0,0,0,0,0l50.6,50.6c-25.7,23.8-60.9,40.5-74.1,27.4
			c-10.2-10.2-2.3-37.5,18.2-63.5c1.9-2.4,1.5-5.9-0.9-7.8c-2.4-1.9-5.9-1.5-7.7,0.9c-25.2,31.9-32.2,63.3-17.4,78.1
			c5.1,5.1,12.3,7.6,20.8,7.6c19.3,0,45.2-12.7,68.9-35l14.6,14.6C119.2,333.2,34.9,357.4,33.6,357.8c-0.2,0.1-13.3,4.7-22.4,1.7
			l44.8-44.8c2.2-2.2,2.2-5.6,0-7.8c-2.2-2.2-5.7-2.2-7.8,0L3.5,351.6C1,344,3.6,333.4,5.3,328.8c0.2-0.8,22-77.2,91.2-153.3
			c2.1-2.3,1.9-5.7-0.4-7.8c-2.2-2-5.7-1.9-7.8,0.4c-71,78-92.8,154.5-93.5,157.3c-0.4,1-9.6,25.7,3.7,39c5.5,5.5,13.1,7.2,20.1,7.2
			c9.6,0,18.1-3.1,18.4-3.2c3.6-1,87.9-25.2,169.6-104.9l24.5,24.5l-3.9,3.9c-6.5,6.5-6.5,17,0,23.4l23.4,23.4
			c5.2,5.2,12.1,8.1,19.5,8.1s14.3-2.9,19.5-8.1c5.2-5.2,8.1-12.1,8.1-19.5c0-7.4-2.9-14.3-8.1-19.5l-23.4-23.4
			c-6.3-6.3-17.2-6.3-23.4,0l-3.9,3.9L137.5,178.7c14-13.2,29.3-23.2,43.4-28.3c13.9-5.1,25.1-4.7,30.7,0.9
			c10.1,10.1,2.5,37-17.7,62.8c-1.9,2.4-1.5,5.9,0.9,7.7c1,0.8,2.2,1.2,3.4,1.2c1.6,0,3.3-0.7,4.4-2.1
			c24.7-31.6,31.5-62.7,16.8-77.4c-8.9-8.9-23.9-10.1-42.3-3.5c-15.6,5.7-32.3,16.6-47.4,30.9l-14.6-14.6
			c45.4-44.1,95.5-71,130.6-86.1c4.3,1.3,16.4,5.8,28.7,18.1c12.8,12.8,17.1,25.7,18.1,29.3c-13.8,32-37.4,76.4-74.9,118.2
			C215.6,238.2,215.8,241.7,218.1,243.7z M78.9,112.3l-15.6,15.6c-1,1-2.4,1.6-3.9,1.6c-1.5,0-2.9-0.6-3.9-1.6L32,104.5
			c-6.5-6.5-6.5-17,0-23.4c3.1-3.1,7.3-4.9,11.7-4.9c4.4,0,8.6,1.7,11.7,4.9l23.4,23.4C81,106.6,81,110.1,78.9,112.3z M235,299.6
			l15.6-15.6c1-1,2.4-1.6,3.9-1.6c1.5,0,2.9,0.6,3.9,1.6l23.4,23.4c3.1,3.1,4.9,7.3,4.9,11.7c0,4.4-1.7,8.6-4.9,11.7
			c-6.3,6.3-17.2,6.3-23.4,0L235,307.4C232.8,305.3,232.8,301.8,235,299.6z M282.2,80.6c-7.9-7.9-15.8-13-22.1-16.2
			c18.6-7.2,30.3-10.2,30.7-10.3c8.2-2.2,17.6-3.3,20.4-2.5c0.9,2.8-0.1,12.2-2.3,20.5c-0.1,0.3-3.2,12.2-10.4,30.9
			C295.3,96.6,290.2,88.6,282.2,80.6z"/>
	</g>
</g>
</svg>
