<?xml version="1.0" encoding="utf-8"?>
<!-- Generator: Adobe Illustrator 22.0.1, SVG Export Plug-In . SVG Version: 6.00 Build 0)  -->
<svg version="1.1" xmlns="http://www.w3.org/2000/svg" xmlns:xlink="http://www.w3.org/1999/xlink" x="0px" y="0px"
	 viewBox="0 0 512 512" style="enable-background:new 0 0 512 512;" xml:space="preserve">
<style type="text/css">
	.st0{fill:#F15D60;}
	.st1{fill:#F79850;}
	.st2{fill:#F6EF4D;}
	.st3{fill:#B8D761;}
	.st4{fill:#7CC791;}
	.st5{fill:#44BE9E;}
	.st6{fill:none;stroke:#020202;stroke-width:5;stroke-linecap:round;stroke-miterlimit:10;}
</style>
<g id="Слой_3">
	<path class="st0" d="M120.1,435.8l42.1-51.9c0,0,29,24.6,71.1,30.6l-10,66.4C223.3,480.8,172,475.2,120.1,435.8z"/>
	<path class="st1" d="M235.3,482.9l11-65.9c0,0,37.4,7.1,77-8.5l24.1,62.7C347.3,471.2,299.9,491.6,235.3,482.9z"/>
	<path class="st2" d="M363,465.2L338.5,403c0,0,35.7-13.1,61.6-46.9l52.9,41.4C453.1,397.5,422.9,439.4,363,465.2z"/>
	<path class="st3" d="M457.6,391.8l-51.8-42.2c0,0,24.7-28.9,30.8-71l66.3,10.2C503,288.7,497.1,340,457.6,391.8z"/>
	<path class="st4" d="M505,278.2l-66.1-9.8c0,0,6.5-37.5-9.8-76.8l62.2-25.1C491.3,166.4,512.5,213.5,505,278.2z"/>
	<path class="st5" d="M487.9,156.7l-62.1,24.6c0,0-13.2-35.7-47-61.5l41.2-53C420.1,66.8,462,96.9,487.9,156.7z"/>
</g>
<g id="Слой_2">
	<g>
		<path class="st6" d="M183.4,24.9c26-9.4,54-14.5,83.3-14.5c133.7,0,242.2,106.8,242.2,238.5S400.5,487.4,266.7,487.4
			c-83.7,0-157.4-41.8-200.9-105.3"/>
	</g>
</g>
<g id="Слой_4">
	<g>
		<g>
			<path d="M301.7,182.6L231.1,49c-1.7-3.2-4.9-5.1-8.5-5.1c0,0,0,0,0,0c-3.6,0-6.8,1.9-8.5,5.1l-64.7,120.7c-1.1,2-0.9,4.4,0.5,6.2
				l15.8,20.8c1.8,2.3,4.4,3.7,7.3,3.8c2.9,0.1,5.6-1.1,7.6-3.2l25-28l48.6,57.4c1.8,2.1,4.5,3.4,7.3,3.4c0,0,0.1,0,0.1,0
				c2.8,0,5.4-1.2,7.3-3.3l28.8-32.9c0.2-0.2,0.3-0.4,0.5-0.6l3.2-4.8C302.5,186.7,302.6,184.4,301.7,182.6z M288.8,186.5
				l-27.1,30.9L213,160.1c-1.8-2.1-4.4-3.4-7.2-3.4c0,0-0.1,0-0.1,0c-2.7,0-5.4,1.2-7.2,3.2l-24.9,27.9l-12.2-16l61.2-114.3
				l67.3,127.4L288.8,186.5z"/>
		</g>
	</g>
	<g>
		<g>
			<path d="M377.7,326.5l-45.3-85.7c-1.5-2.8-5-3.9-7.8-2.4c-2.8,1.5-3.9,5-2.4,7.8l43.8,83H212.4c-0.2-0.9-67-127.6-67-127.6
				l9.9-18.5l10.4,13.6c1.8,2.3,4.4,3.7,7.3,3.8c2.9,0.1,5.6-1.1,7.6-3.2l25-28l48.6,57.4c1.8,2.1,4.5,3.4,7.3,3.4c0,0,0.1,0,0.1,0
				c2.8,0,5.4-1.2,7.3-3.3c0,0,0,0,0.1-0.1l26.5-31.2l10.8,20.4c1.5,2.8,5,3.9,7.8,2.4c2.8-1.5,3.9-5,2.4-7.8L231.1,49
				c-1.7-3.2-4.9-5.1-8.5-5.1h0c-3.6,0-6.8,1.9-8.5,5.1L153.5,162l-4.1,7.6c0,0,0,0,0,0l-10.5,19.6l-31.2-59
				c-1.3-2.4-3.4-4.1-5.9-4.8c-0.8-0.2-1.7-0.4-2.6-0.4c0,0,0,0,0,0c-0.1,0-0.2,0-0.4,0c-0.1,0-0.2,0-0.3,0c-0.1,0-0.2,0-0.3,0
				c-0.1,0-0.3,0-0.4,0c-0.1,0-0.2,0-0.3,0.1c-0.1,0-0.2,0-0.3,0.1c-2.8,0.6-5.2,2.3-6.6,4.9l-21.1,39.4l-35.5,66.3c0,0,0,0,0,0
				l-48.5,90.6c-1.6,3-1.5,6.6,0.2,9.5c1.8,2.9,4.9,4.7,8.3,4.7h375.1c3.4,0,6.5-1.7,8.3-4.7C379.2,333,379.3,329.5,377.7,326.5z
				 M163.1,168.5l59.5-111l67.1,127l-28,32.9L213,160.1c-1.8-2.1-4.4-3.4-7.2-3.4c0,0-0.1,0-0.1,0c-2.7,0-5.4,1.2-7.2,3.2
				l-24.9,27.9l-12.2-16L163.1,168.5z M-2.8,329.1l43.7-81.5l16.8,14.1c1.8,1.5,4,2.3,6.2,2.3c2.6,0,5.3-1.1,7.2-3.2L90.4,239
				l12.4,12.3c2.3,2.2,5.9,2.2,8.2,0c2.2-2.3,2.2-5.9,0-8.2l-13.9-13.7c-1.9-1.9-4.4-2.9-7.1-2.8c-2.6,0.1-5.2,1.3-6.9,3.2
				l-19.4,21.8l-17.3-14.5l52.7-98.4l68.1,128.8l-16.4,15.1l-15-14.9c-2.3-2.2-5.9-2.2-8.2,0c-2.2,2.3-2.2,5.9,0,8.2l16.3,16.2
				c1.9,1.9,4.3,2.8,6.8,2.8c2.3,0,4.7-0.9,6.5-2.6l15.5-14.3l26.9,51H-2.8z"/>
		</g>
	</g>
</g>
</svg>
