<?xml version="1.0" encoding="utf-8"?>
<!-- Generator: Adobe Illustrator 23.0.2, SVG Export Plug-In . SVG Version: 6.00 Build 0)  -->
<svg version="1.1" id="Слой_1" xmlns="http://www.w3.org/2000/svg" xmlns:xlink="http://www.w3.org/1999/xlink" x="0px" y="0px"
	 viewBox="0 0 512 512" style="enable-background:new 0 0 512 512;" xml:space="preserve">
<style type="text/css">
	.st0{fill:#F15D60;}
	.st1{fill:#F79850;}
	.st2{fill:#F6EF4D;}
	.st3{fill:#B8D761;}
	.st4{fill:#7CC791;}
	.st5{fill:#44BE9E;}
	.st6{fill:none;stroke:#020202;stroke-width:5;stroke-linecap:round;stroke-miterlimit:10;}
</style>
<g id="Слой_3">
	<path class="st0" d="M120.1,435.8l42.1-51.9c0,0,29,24.6,71.1,30.6l-10,66.4C223.3,480.8,172,475.2,120.1,435.8z"/>
	<path class="st1" d="M235.3,482.9l11-65.9c0,0,37.4,7.1,77-8.5l24.1,62.7C347.3,471.2,299.9,491.6,235.3,482.9z"/>
	<path class="st2" d="M363,465.2L338.5,403c0,0,35.7-13.1,61.6-46.9l52.9,41.4C453.1,397.5,422.9,439.4,363,465.2z"/>
	<path class="st3" d="M457.6,391.8l-51.8-42.2c0,0,24.7-28.9,30.8-71l66.3,10.2C503,288.7,497.1,340,457.6,391.8z"/>
	<path class="st4" d="M505,278.2l-66.1-9.8c0,0,6.5-37.5-9.8-76.8l62.2-25.1C491.3,166.4,512.5,213.5,505,278.2z"/>
	<path class="st5" d="M487.9,156.7l-62.1,24.6c0,0-13.2-35.7-47-61.5l41.2-53C420.1,66.8,462,96.9,487.9,156.7z"/>
</g>
<g>
	<g>
		<path class="st6" d="M183.4,24.9c26-9.4,54-14.5,83.3-14.5c133.7,0,242.2,106.8,242.2,238.5S400.5,487.4,266.7,487.4
			c-83.7,0-157.4-41.8-200.9-105.3"/>
	</g>
</g>
<g id="outline">
	<path d="M275.1,156.6c-10,0-19.9,1.7-29.3,5l-29.1-67h41.2c5.7,0,10.3,4.6,10.3,10.3c0,5.7-4.6,10.3-10.3,10.3h-17.2v13.8h17.2
		c13.3,0,24.1-10.8,24.1-24.1s-10.8-24.1-24.1-24.1h-51.7c-3.8,0-6.9,3.1-6.9,6.9c0,0.9,0.2,1.9,0.6,2.8l13.8,31.7H98.2l-8.1-25.3
		l23.2-7.7c7.8-2.6,12-11,9.4-18.8c-2-6.1-7.7-10.2-14.1-10.2H57.4c-9.2,0-16.6,7.4-16.6,16.6c0,4.4,1.8,8.6,4.9,11.8l3.9,3.9
		c7.1,7.2,17.4,10.4,27.4,8.5l7.4,23.1c-0.6,0.5-1,1.1-1.4,1.8l-20.2,38.2c-45.4-19.8-98.1,1-117.9,46.3s1,98.1,46.3,117.9
		s98.1-1,117.9-46.3c0.9-2,1.6-3.9,2.3-6c3.7,10.5,13.4,17.7,24.5,18.3l5.2,15.5c0.9,2.8,3.5,4.6,6.4,4.7l24.1,0.6l0.3-13.8
		l-19.3-0.5l-3.1-9.4c13.5-6.6,19.2-22.8,12.6-36.4c-1-2-2.2-3.9-3.7-5.7l69-95.6l5.8,13.3c-43.6,23.2-60.2,77.4-36.9,121.1
		c23.2,43.6,77.4,60.2,121.1,36.9s60.2-77.4,36.9-121.1C338.7,174.8,308.2,156.6,275.1,156.6z M76.8,86.8c-6.1,2-12.9,0.4-17.4-4.1
		l-3.9-3.9c-1.1-1.1-1.1-2.9,0-4c0.5-0.5,1.2-0.8,2-0.8h51.2c0.6,0,1.1,0.5,1.1,1.1c0,0.5-0.3,0.9-0.8,1.1L76.8,86.8z M27,322
		c-41.9,0-75.8-33.9-75.8-75.8s33.9-75.8,75.8-75.8c10.1,0,20,2,29.3,5.9L20.9,243c-1.8,3.4-0.5,7.5,2.9,9.3
		c0.6,0.3,1.3,0.6,1.9,0.7l74.1,13.9C90.6,299.5,60.9,322,27,322z M102.5,253.4l-65-12.2l30.9-58.4c21.4,14,34.4,37.8,34.4,63.4
		C102.8,248.6,102.7,251,102.5,253.4L102.5,253.4z M116.5,249c0-0.9,0.1-1.9,0.1-2.8c0-30.7-15.8-59.2-41.8-75.6L90,141.9
		l32.6,101.7C120.3,245.1,118.2,246.9,116.5,249L116.5,249z M145.1,278.2l-4.7-14.1l-13.1,4.4l3.5,10.5c-6.7-3.6-9.1-11.9-5.5-18.6
		c3.6-6.7,11.9-9.1,18.6-5.5s9.1,11.9,5.5,18.6C148.3,275.3,146.8,277,145.1,278.2L145.1,278.2z M147.3,241.3c-3.2-1.3-6.6-1.9-10-2
		c-0.5,0-1,0.1-1.5,0.2l-33.1-103.5h117l1.4,3.2L147.3,241.3z M275.1,322c-41.9,0-75.8-34-75.7-75.9c0-27.7,15.1-53.1,39.3-66.4
		l30.1,69.2l12.6-5.5l-30.1-69.2c39.7-13.2,82.6,8.3,95.8,48.1s-8.3,82.6-48.1,95.8C291.4,320.7,283.3,322,275.1,322z"/>
</g>
</svg>
