<?xml version="1.0" encoding="utf-8"?>
<!-- Generator: Adobe Illustrator 22.0.1, SVG Export Plug-In . SVG Version: 6.00 Build 0)  -->
<svg version="1.1" xmlns="http://www.w3.org/2000/svg" xmlns:xlink="http://www.w3.org/1999/xlink" x="0px" y="0px"
	 viewBox="0 0 512 512" style="enable-background:new 0 0 512 512;" xml:space="preserve">
<style type="text/css">
	.st0{fill:#F15D60;}
	.st1{fill:#F79850;}
	.st2{fill:#F6EF4D;}
	.st3{fill:#B8D761;}
	.st4{fill:#7CC791;}
	.st5{fill:#44BE9E;}
	.st6{fill:none;stroke:#020202;stroke-width:5;stroke-linecap:round;stroke-miterlimit:10;}
</style>
<g id="Слой_3">
	<path class="st0" d="M120.1,435.8l42.1-51.9c0,0,29,24.6,71.1,30.6l-10,66.4C223.3,480.8,172,475.2,120.1,435.8z"/>
	<path class="st1" d="M235.3,482.9l11-65.9c0,0,37.4,7.1,77-8.5l24.1,62.7C347.3,471.2,299.9,491.6,235.3,482.9z"/>
	<path class="st2" d="M363,465.2L338.5,403c0,0,35.7-13.1,61.6-46.9l52.9,41.4C453.1,397.5,422.9,439.4,363,465.2z"/>
	<path class="st3" d="M457.6,391.8l-51.8-42.2c0,0,24.7-28.9,30.8-71l66.3,10.2C503,288.7,497.1,340,457.6,391.8z"/>
	<path class="st4" d="M505,278.2l-66.1-9.8c0,0,6.5-37.5-9.8-76.8l62.2-25.1C491.3,166.4,512.5,213.5,505,278.2z"/>
	<path class="st5" d="M487.9,156.7l-62.1,24.6c0,0-13.2-35.7-47-61.5l41.2-53C420.1,66.8,462,96.9,487.9,156.7z"/>
</g>
<g id="Слой_2">
	<g>
		<path class="st6" d="M183.4,24.9c26-9.4,54-14.5,83.3-14.5c133.7,0,242.2,106.8,242.2,238.5S400.5,487.4,266.7,487.4
			c-83.7,0-157.4-41.8-200.9-105.3"/>
	</g>
</g>
<g id="Слой_4">
	<g>
		<path d="M35.4,21.6c-2.4,2.1-3.5,5.4-3.1,8.9c0.2,2,0.9,4,2,6.2L44.7,57c3.6,6.9,10.9,16.2,16.8,21.2l123.4,103.8
			c1.6,6.6,5.3,12.5,10.5,16.9c2.6,2.2,6.4,1.8,8.5-0.9l0,0l125.5,105.5c3.8,3.2,8.5,4.7,13.4,4.1c4.8-0.5,9.2-3,12.2-6.9l7.5-9.8
			c3-3.9,4.4-8.9,3.8-14c-0.6-5.1-2.9-9.6-6.7-12.8L234.1,158.5c1-1.4,1.5-3,1.3-4.6c-0.2-1.6-0.9-3.2-2.3-4.3
			c-5.2-4.4-11.5-6.8-18-7L91.7,38.7c-5.9-4.9-16.1-10.5-23.4-12.6l-21.1-6.2C41.1,18.1,37.4,19.8,35.4,21.6z M212.3,156.3
			L197.2,176l-1.1-0.9c-0.3-4.7,1.1-9.2,3.9-12.9c2.8-3.7,6.7-6.1,11.2-6.8L212.3,156.3z M352.1,273.8c1.3,1.1,2.1,2.6,2.2,4.3
			c0.2,1.7-0.3,3.3-1.3,4.6l-7.5,9.8c-1,1.3-2.4,2.1-4.1,2.3c-1.6,0.2-3.2-0.3-4.5-1.4L206.7,184l15.1-19.7L352.1,273.8z M65.1,38.3
			c5.7,1.7,14.4,6.4,19,10.3L200.1,146c-3.6,2-6.9,4.7-9.5,8.2c-2.6,3.4-4.5,7.4-5.6,11.5L69,68.3C64.4,64.4,58.2,56.5,55.4,51
			l-9.4-18.4L65.1,38.3z"/>
		<path d="M238,194.1c-1,1.3-1.5,3-1.3,4.7c0.2,1.7,1,3.2,2.2,4.3c1.3,1.1,2.9,1.6,4.5,1.4c1.6-0.2,3.1-1,4.1-2.3
			c1-1.3,1.5-3,1.3-4.6c-0.2-1.7-1-3.2-2.3-4.3s-2.9-1.6-4.5-1.4C240.5,192,239,192.8,238,194.1z"/>
		<path d="M190.1,212.9c-0.2-1.6-0.9-3.2-2.3-4.3c-5.2-4.4-11.5-6.8-18-7L46.4,97.8c-5.9-4.9-16.1-10.5-23.4-12.6L1.9,79
			c-6.1-1.8-9.7-0.1-11.7,1.7c-2.4,2.1-3.5,5.4-3.1,8.9c0.2,2,0.9,4,2,6.2L-0.6,116c3.6,6.9,10.9,16.2,16.8,21.2L139.7,241
			c1.6,6.4,5.1,12.4,10.5,16.9c2.6,2.2,6.4,1.8,8.5-0.9l0,0l125.5,105.5c3.8,3.2,8.5,4.7,13.4,4.1c4.8-0.5,9.2-3,12.2-6.9l7.5-9.8
			c3-3.9,4.4-8.9,3.8-13.9c-0.6-5.1-2.9-9.6-6.7-12.8L188.9,217.5C189.9,216.2,190.3,214.5,190.1,212.9z M150.9,234.2
			c-0.3-4.5,1-9.1,3.9-12.9c2.8-3.7,6.7-6.1,11.2-6.8l1.1,0.9L152,235.1L150.9,234.2z M23.8,127.4c-4.6-3.9-10.9-11.8-13.7-17.2
			L0.7,91.7l19.2,5.7c5.7,1.7,14.4,6.4,19,10.3l115.9,97.4c-3.6,2-6.9,4.7-9.5,8.2c-2.7,3.5-4.5,7.4-5.6,11.5L23.8,127.4z
			 M306.8,332.9c1.3,1.1,2.1,2.6,2.2,4.3s-0.3,3.3-1.3,4.6l-7.5,9.8c-1,1.3-2.4,2.1-4.1,2.3c-1.6,0.2-3.2-0.3-4.5-1.4L161.5,243.1
			l15.1-19.7L306.8,332.9z"/>
		<path d="M192.8,253.2c-1,1.3-1.5,3-1.3,4.7c0.2,1.7,1,3.2,2.2,4.3c1.3,1.1,2.9,1.6,4.5,1.4c1.6-0.2,3.1-1,4.1-2.3
			c1-1.3,1.5-3,1.3-4.6c-0.2-1.7-1-3.2-2.3-4.3c-1.3-1.1-2.9-1.6-4.5-1.4C195.2,251.1,193.8,251.9,192.8,253.2z"/>
	</g>
</g>
</svg>
