<?xml version="1.0" encoding="utf-8"?>
<!-- Generator: Adobe Illustrator 23.0.2, SVG Export Plug-In . SVG Version: 6.00 Build 0)  -->
<svg version="1.1" id="Слой_1" xmlns="http://www.w3.org/2000/svg" xmlns:xlink="http://www.w3.org/1999/xlink" x="0px" y="0px"
	 viewBox="0 0 512 512" style="enable-background:new 0 0 512 512;" xml:space="preserve">
<style type="text/css">
	.st0{fill:#F15D60;}
	.st1{fill:#F79850;}
	.st2{fill:#F6EF4D;}
	.st3{fill:#B8D761;}
	.st4{fill:#7CC791;}
	.st5{fill:#44BE9E;}
	.st6{fill:none;stroke:#020202;stroke-width:5;stroke-linecap:round;stroke-miterlimit:10;}
</style>
<g id="Слой_3">
	<path class="st0" d="M120.1,435.8l42.1-51.9c0,0,29,24.6,71.1,30.6l-10,66.4C223.3,480.8,172,475.2,120.1,435.8z"/>
	<path class="st1" d="M235.3,482.9l11-65.9c0,0,37.4,7.1,77-8.5l24.1,62.7C347.3,471.2,299.9,491.6,235.3,482.9z"/>
	<path class="st2" d="M363,465.2L338.5,403c0,0,35.7-13.1,61.6-46.9l52.9,41.4C453.1,397.5,422.9,439.4,363,465.2z"/>
	<path class="st3" d="M457.6,391.8l-51.8-42.2c0,0,24.7-28.9,30.8-71l66.3,10.2C503,288.7,497.1,340,457.6,391.8z"/>
	<path class="st4" d="M505,278.2l-66.1-9.8c0,0,6.5-37.5-9.8-76.8l62.2-25.1C491.3,166.4,512.5,213.5,505,278.2z"/>
	<path class="st5" d="M487.9,156.7l-62.1,24.6c0,0-13.2-35.7-47-61.5l41.2-53C420.1,66.8,462,96.9,487.9,156.7z"/>
</g>
<g>
	<g>
		<path class="st6" d="M183.4,24.9c26-9.4,54-14.5,83.3-14.5c133.7,0,242.2,106.8,242.2,238.5S400.5,487.4,266.7,487.4
			c-83.7,0-157.4-41.8-200.9-105.3"/>
	</g>
</g>
<path d="M242.5,190.1c-2.1,2.4-5.8,2.6-8.2,0.5c-2.4-2.1-2.6-5.8-0.5-8.2c2.1-2.4,5.8-2.6,8.2-0.5
	C244.4,184.1,244.6,187.7,242.5,190.1z"/>
<path d="M219.4,216.1c-2.1,2.4-5.8,2.6-8.2,0.5c-2.4-2.1-2.6-5.8-0.5-8.2c2.1-2.4,5.8-2.6,8.2-0.5
	C221.3,210,221.6,213.7,219.4,216.1z"/>
<path d="M336.7,266.6H219.5V256h101.2c2.7,0,4.9-1.9,5.3-4.6c2.1-22.8-0.5-45.8-7.5-67.6c-10.5-34.4-36.2-83.4-99-122.6v-2.4
	c0-8.8-7.2-16-16-16c-8.8,0-16,7.2-16,16v4.5c-31.4,98.3-120,182.6-120.8,183.4c-1.6,1.5-2.1,3.8-1.3,5.8c0.8,2,2.8,3.4,5,3.4h117.2
	v10.7H86.4c-2.3,0-4.3,1.4-5,3.6L67,311.4c-4.6,11.5-3.2,24.5,3.7,34.8c6.9,10.2,18.5,16.4,30.9,16.4h176.2
	c15.2,0.1,28.9-9.1,34.5-23.2l29.3-65.1c0.7-1.6,0.6-3.6-0.4-5.1C340.2,267.6,338.5,266.6,336.7,266.6z M315.8,245.3h-96.3V73.9
	C315.6,136.9,317,224.5,315.8,245.3z M83.2,245.3c21.3-22,74.4-81.3,104.4-151.5v151.5H83.2z M198.2,58.9c0-2.9,2.4-5.3,5.3-5.3
	s5.3,2.4,5.3,5.3v207.7h-10.7V58.9z M187.6,277.3h140.9l-9.6,21.3H82.7l7.4-21.3H187.6z M302.5,335.1c-4,10.1-13.8,16.8-24.7,16.7
	H101.6c-8.9,0-17.2-4.4-22.1-11.8c-4.9-7.4-5.9-16.7-2.5-25l2-5.9h235.1L302.5,335.1z"/>
<path d="M171.6,319.9H91.7c-2.9,0-5.3,2.4-5.3,5.3s2.4,5.3,5.3,5.3h79.9c2.9,0,5.3-2.4,5.3-5.3S174.5,319.9,171.6,319.9z"/>
<path d="M198.2,319.9h-5.3c-2.9,0-5.3,2.4-5.3,5.3s2.4,5.3,5.3,5.3h5.3c2.9,0,5.3-2.4,5.3-5.3S201.2,319.9,198.2,319.9z"/>
<path d="M288.2,214.4c0.5,2.5,2.7,4.3,5.2,4.3c0.4,0,0.7,0,1.1-0.1c2.9-0.6,4.8-3.4,4.2-6.3c-10.8-54.1-52.7-101.7-54.5-103.7
	c-1.2-1.5-3.2-2.2-5.1-1.8c-1.9,0.4-3.5,1.8-4.1,3.6c-0.6,1.9-0.1,3.9,1.2,5.3C236.6,116.2,277.9,163.2,288.2,214.4z"/>
<path d="M171.6,224h-21.3c-2.9,0-5.3,2.4-5.3,5.3c0,2.9,2.4,5.3,5.3,5.3h21.3c2.9,0,5.3-2.4,5.3-5.3
	C176.9,226.4,174.5,224,171.6,224z"/>
</svg>
